<?xml version="1.0" standalone="no"?>
<!DOCTYPE svg PUBLIC "-//W3C//DTD SVG 20010904//EN"
 "http://www.w3.org/TR/2001/REC-SVG-20010904/DTD/svg10.dtd">
<svg version="1.0" xmlns="http://www.w3.org/2000/svg"
 width="640.000000pt" height="640.000000pt" viewBox="0 0 640.000000 640.000000"
 preserveAspectRatio="xMidYMid meet">

<g transform="translate(0.000000,640.000000) scale(0.100000,-0.100000)"
fill="#000000" stroke="none">
<path d="M0 3200 l0 -3200 3200 0 3200 0 0 3200 0 3200 -3200 0 -3200 0 0
-3200z m5390 2879 c49 -12 114 -56 134 -90 l17 -29 -66 0 c-56 0 -72 4 -96 24
-55 46 -164 45 -221 -2 -36 -30 -58 -78 -58 -123 l0 -32 23 20 c72 66 222 76
334 22 96 -46 121 -156 53 -233 -17 -18 -54 -44 -82 -57 -45 -20 -69 -24 -158
-24 -114 0 -163 15 -225 67 -99 84 -106 277 -14 382 72 82 214 111 359 75z
m770 -32 c0 -39 -13 -61 -157 -265 l-158 -221 -67 -1 c-38 0 -68 2 -68 6 0 3
68 97 150 210 83 113 153 211 157 219 4 13 -23 15 -186 15 l-191 0 0 33 c0 19
3 37 7 40 3 4 120 7 260 7 l253 0 0 -43z m-509 -772 c160 -24 269 -68 376
-151 84 -66 138 -140 164 -226 19 -61 20 -77 11 -140 -14 -92 -49 -161 -116
-230 -95 -97 -221 -160 -386 -194 -115 -23 -334 -15 -440 16 -179 52 -340 171
-402 298 -30 61 -33 75 -33 157 1 108 25 170 100 253 102 113 248 186 433 217
104 18 179 18 293 0z m-1800 -285 c9 0 28 -11 43 -25 36 -33 37 -105 2 -140
-45 -45 -139 -42 -182 6 -26 29 -26 100 0 128 22 24 72 42 101 35 11 -2 27 -4
36 -4z m323 4 c9 -3 16 -11 16 -17 0 -25 -346 -377 -371 -377 -34 0 -33 28 1
67 63 73 320 333 329 333 5 0 16 -3 25 -6z m-2963 -23 c22 -18 23 -24 23 -165
1 -198 13 -189 -224 -184 l-176 3 -107 80 c-80 59 -107 85 -107 101 0 17 26
41 103 97 56 41 109 77 117 80 8 3 90 6 181 6 149 1 169 -1 190 -18z m1546
-33 c35 -10 86 -63 80 -82 -8 -25 -57 -18 -93 13 -28 25 -44 31 -80 31 -93 0
-145 -68 -110 -142 20 -42 51 -58 111 -58 35 0 52 6 79 31 25 21 43 29 62 27
40 -4 40 -24 2 -62 -80 -80 -273 -65 -328 27 -26 42 -26 112 0 154 42 70 163
96 277 61z m-387 -128 c38 -77 70 -144 70 -150 0 -5 -17 -10 -38 -10 -34 0
-40 4 -55 35 l-17 35 -78 0 -78 0 -17 -35 c-15 -31 -21 -35 -57 -35 -22 0 -40
3 -40 6 0 6 128 256 143 282 5 6 28 12 53 12 l44 0 70 -140z m1877 -25 c34
-23 47 -76 29 -120 -37 -88 -186 -82 -216 10 -32 97 93 170 187 110z m-2727
-340 c0 -9 9 -15 24 -15 14 0 31 -7 40 -15 20 -20 25 -19 19 5 -4 16 0 20 19
20 14 0 35 -9 48 -20 13 -11 31 -20 41 -20 9 0 43 -13 74 -30 57 -30 97 -35
160 -21 17 4 29 13 27 20 -2 9 6 11 30 5 18 -4 44 -8 57 -8 13 -1 26 -8 29
-16 2 -8 17 -26 31 -40 53 -49 84 -64 137 -65 43 0 56 -5 88 -32 43 -38 71
-42 87 -11 10 19 13 19 20 5 5 -9 16 -14 24 -11 9 4 15 0 15 -10 0 -18 35 -22
45 -6 18 30 155 -3 155 -37 0 -11 4 -23 9 -29 15 -16 21 -72 8 -78 -18 -7 22
-36 50 -36 24 0 43 -33 68 -120 7 -25 14 -36 14 -24 1 11 12 43 26 71 31 61
82 92 120 75 27 -12 34 -6 55 48 21 55 41 80 61 80 24 0 24 -5 0 -44 -29 -47
-84 -213 -77 -232 6 -15 8 -15 27 2 11 10 36 47 56 81 28 51 39 63 60 63 24 0
24 -1 11 -22 -25 -38 -51 -116 -43 -128 8 -13 65 35 65 55 0 6 16 30 36 53 31
37 40 42 77 42 l42 -1 -35 -19 c-41 -21 -92 -112 -73 -131 19 -19 68 37 107
123 65 145 70 153 95 156 13 2 21 0 19 -5 -75 -153 -116 -283 -89 -283 11 0
61 58 61 70 0 16 63 82 87 91 14 5 33 5 48 -1 23 -9 26 -5 57 58 24 49 39 68
56 70 12 2 22 1 22 -1 0 -2 -13 -30 -28 -60 -66 -130 -93 -262 -44 -213 9 9
31 40 48 69 29 49 76 89 89 75 4 -3 -5 -24 -20 -46 -28 -42 -46 -122 -27 -122
15 0 62 58 80 100 22 49 42 70 65 70 14 0 17 -4 12 -17 -4 -10 -25 -63 -46
-118 -46 -118 -87 -165 -143 -165 -38 0 -69 23 -64 49 5 23 44 21 40 -2 -2 -9
4 -20 12 -23 23 -9 57 15 72 51 20 48 18 59 -8 41 -35 -24 -67 -20 -74 9 l-6
25 -30 -25 c-47 -40 -78 -30 -78 26 0 16 -6 14 -36 -16 -40 -40 -72 -43 -89
-9 l-11 22 -27 -24 c-46 -39 -77 -28 -77 27 0 17 -6 14 -35 -16 -43 -42 -72
-45 -85 -9 l-10 26 -31 -26 c-39 -33 -67 -34 -75 -1 l-6 25 -30 -25 c-38 -32
-60 -29 -73 12 -10 31 -11 31 -23 12 -7 -11 -29 -30 -49 -41 l-35 -21 28 -21
c53 -37 113 -105 122 -138 8 -32 10 -33 51 -30 23 2 48 -1 56 -8 10 -8 18 -8
34 2 33 20 35 2 7 -62 -14 -34 -26 -68 -26 -76 0 -42 63 20 86 86 37 100 79
183 107 206 33 28 50 30 67 8 18 -21 -15 -89 -75 -153 -47 -51 -75 -104 -75
-146 0 -47 48 -19 83 50 33 66 105 107 147 85 24 -13 26 -52 5 -70 -23 -19
-40 1 -24 28 18 29 5 38 -27 18 -37 -25 -69 -101 -55 -132 24 -53 90 -11 144
91 26 48 37 61 59 63 l28 3 -30 -63 c-17 -35 -30 -71 -30 -81 0 -35 34 -13 67
43 46 79 72 110 94 110 10 0 19 -1 19 -2 0 -2 -14 -30 -30 -62 -33 -64 -38
-96 -15 -96 18 0 57 66 90 155 15 39 36 85 47 102 10 18 17 37 13 43 -10 16
16 88 42 112 18 17 40 23 94 27 l71 6 27 80 c42 123 66 165 97 165 14 0 24 -3
22 -7 -2 -5 -17 -35 -34 -68 -17 -33 -35 -71 -39 -85 -8 -24 -6 -23 29 8 40
34 55 39 74 20 18 -18 15 -64 -8 -108 -24 -47 -24 -50 -6 -50 23 0 63 59 91
134 54 144 92 196 141 196 52 0 28 -73 -58 -172 -27 -31 -53 -72 -59 -90 -31
-109 26 -84 93 41 22 40 33 51 53 51 l24 0 -29 -62 c-31 -64 -37 -93 -21 -102
12 -8 44 31 82 102 26 48 39 62 56 62 13 0 23 -2 23 -4 0 -2 -11 -28 -25 -58
-52 -110 -20 -127 45 -23 43 68 72 88 116 83 l29 -3 -30 -15 c-32 -17 -75 -82
-75 -117 0 -29 11 -29 44 2 24 22 57 84 114 218 17 38 26 47 46 47 l25 0 -20
-34 c-29 -49 -79 -192 -79 -226 0 -37 17 -32 50 17 13 20 59 71 100 113 63 64
92 85 170 123 157 76 309 103 480 87 136 -13 208 -33 320 -88 73 -36 111 -62
166 -117 96 -95 118 -143 122 -268 4 -91 2 -101 -27 -163 -59 -125 -206 -238
-381 -292 -105 -32 -271 -46 -376 -33 -184 24 -313 75 -430 170 -34 27 -75 71
-93 97 l-31 48 20 21 c19 21 27 65 13 78 -3 4 -14 -6 -24 -22 -11 -18 -42 -40
-83 -59 -47 -22 -69 -39 -78 -59 -16 -37 -15 -36 -27 -29 -16 10 6 50 38 69
32 19 101 92 101 107 0 6 -9 19 -20 30 -26 26 -60 14 -80 -28 -17 -36 -43 -38
-48 -5 -4 29 49 63 100 63 34 0 40 4 58 39 29 58 19 74 -31 47 -34 -18 -41
-19 -49 -6 -5 8 -10 28 -10 43 l0 28 -39 -41 c-50 -52 -67 -51 -98 9 -1 1 -14
-9 -30 -23 -33 -31 -63 -34 -70 -6 -7 25 -11 25 -43 0 -35 -28 -68 -26 -76 4
l-6 24 -36 -24 c-43 -30 -76 -28 -80 3 -3 22 -5 22 -28 7 -13 -9 -34 -14 -47
-11 -38 10 -50 -5 -41 -54 12 -69 -4 -134 -39 -156 -15 -10 -63 -107 -73 -145
-10 -46 22 -34 56 19 37 57 46 86 31 91 -16 5 -3 22 17 22 9 0 27 18 40 40 14
25 30 40 42 40 25 0 25 -1 -1 -44 l-21 -36 21 0 c31 0 26 -18 -6 -22 -23 -3
-30 -11 -47 -65 -31 -99 0 -101 60 -5 52 82 103 109 155 82 15 -8 19 -22 19
-60 0 -43 3 -50 20 -50 28 0 66 75 49 96 -10 12 -9 18 3 31 17 17 38 10 38
-12 0 -20 31 -27 50 -10 14 12 50 22 50 13 0 -2 -14 -30 -30 -62 -17 -32 -30
-68 -30 -78 0 -30 31 -18 57 21 13 19 23 27 23 18 0 -8 -19 -36 -43 -62 -35
-39 -47 -46 -65 -41 -27 9 -30 58 -7 113 19 44 19 43 -4 43 -11 0 -22 -9 -26
-19 -12 -37 -46 -71 -72 -71 -17 0 -38 -13 -60 -35 -25 -25 -43 -35 -65 -35
-34 0 -68 24 -68 48 0 9 -12 3 -36 -18 -46 -40 -67 -36 -74 13 l-5 37 -39 -40
c-21 -22 -44 -40 -50 -40 -20 0 -36 22 -36 50 l0 25 -18 -21 c-43 -53 -94 -64
-107 -23 -6 18 -8 18 -43 -6 -50 -34 -71 -32 -78 5 l-6 30 -35 -31 c-39 -34
-66 -35 -71 -1 -4 28 -7 28 -44 -3 -37 -32 -55 -32 -70 0 -11 24 -11 24 -38 5
-14 -10 -37 -21 -51 -25 -33 -8 -80 11 -86 35 -5 19 -23 29 -23 13 0 -5 -16
-19 -34 -31 -39 -27 -76 -22 -76 9 0 24 -5 24 -29 0 -10 -10 -27 -24 -37 -30
-13 -9 -15 -14 -6 -17 6 -3 12 -14 12 -24 0 -20 49 -98 75 -120 8 -7 15 -19
15 -26 0 -12 -4 -12 -20 -2 -22 14 -33 8 -24 -16 10 -26 52 -31 75 -10 21 19
21 18 14 -17 -6 -34 -4 -39 40 -74 43 -36 86 -95 68 -95 -5 0 -21 14 -36 30
-16 17 -36 30 -45 30 -8 0 -23 7 -32 15 -21 19 -80 37 -80 25 0 -20 13 -40 27
-40 9 0 14 -8 12 -22 -1 -13 2 -31 6 -41 11 -25 -8 -42 -25 -22 -7 8 -16 15
-20 15 -5 0 -5 -174 0 -220 0 -3 5 3 11 13 11 19 29 23 29 7 0 -13 -37 -45
-52 -45 -44 0 16 -49 86 -70 16 -4 13 -9 -18 -30 -52 -35 -67 -34 -46 6 9 16
7 21 -15 29 -15 6 -31 10 -36 10 -13 0 -11 -24 3 -38 7 -7 13 -29 14 -51 1
-21 9 -52 18 -69 29 -57 12 -75 -34 -36 -21 17 -48 -4 -56 -44 -6 -29 -5 -30
29 -30 50 0 57 -7 57 -57 0 -54 -10 -61 -46 -33 -47 35 -48 36 -34 53 12 14
11 18 -1 26 -32 20 -41 10 -38 -38 6 -85 -38 -119 -86 -67 -20 22 -27 24 -45
14 -12 -6 -24 -10 -26 -7 -3 3 -7 35 -8 71 -2 40 -9 74 -18 84 -9 11 -12 26
-9 42 7 24 7 23 24 -12 10 -21 22 -40 27 -43 6 -3 10 -15 10 -26 0 -10 5 -19
10 -19 6 0 10 20 10 44 0 33 7 52 29 80 23 29 28 42 22 59 -13 34 -41 34 -42
0 0 -15 -4 -37 -8 -47 -7 -18 -8 -18 -24 5 -21 29 -21 39 -1 53 14 11 13 14
-5 36 -14 16 -21 20 -20 10 3 -32 -2 -41 -32 -59 -18 -11 -26 -22 -20 -25 16
-10 13 -37 -5 -50 -14 -11 -21 -30 -23 -63 -1 -7 -8 -13 -17 -13 -11 0 -14 6
-9 21 6 17 3 20 -12 17 -18 -3 -22 -23 -27 -118 -1 -31 2 -35 27 -38 31 -4 32
-25 1 -31 -23 -4 -54 -30 -54 -44 0 -24 -52 -175 -71 -206 -25 -42 -39 -31
-47 35 -3 31 -13 57 -29 74 -13 14 -21 31 -18 38 3 9 -3 12 -21 10 -22 -3 -27
3 -43 47 -10 29 -24 51 -34 53 -9 2 -17 0 -17 -5 0 -4 -11 -21 -25 -38 l-25
-30 6 33 c4 20 3 32 -5 32 -6 0 -11 -4 -11 -10 0 -5 -9 -10 -20 -10 -11 0 -20
5 -20 10 0 6 -7 10 -15 10 -8 0 -15 5 -15 10 0 6 4 10 10 10 5 0 21 18 35 40
14 23 34 44 43 47 22 8 72 54 72 66 0 5 -10 7 -23 3 -33 -8 -71 5 -104 36 -61
58 -62 61 -66 205 -3 77 -7 107 -20 120 -11 13 -17 44 -20 113 -5 120 -15 144
-64 161 -20 6 -55 31 -78 55 -47 50 -99 74 -174 80 -29 2 -61 9 -71 14 -13 7
-20 6 -23 -3 -8 -22 -15 -3 -10 26 5 23 13 29 51 39 39 10 42 12 24 19 -13 5
-38 3 -63 -6 -23 -8 -45 -12 -50 -9 -14 8 -10 32 7 42 9 5 15 11 13 13 -4 8
12 84 28 127 11 30 13 46 5 54 -13 13 -36 -21 -61 -93 -16 -46 -24 -55 -47
-57 -25 -3 -26 -2 -21 28 10 47 -16 49 -58 5 -33 -35 -38 -37 -81 -32 -26 2
-50 11 -55 18 -16 25 -10 93 11 127 11 18 20 37 20 42 0 19 -29 10 -42 -12
-14 -25 -16 -41 -18 -140 -1 -37 -6 -70 -11 -73 -12 -8 -12 -95 1 -95 6 0 10
-7 10 -15 0 -8 -4 -15 -10 -15 -5 0 -10 -7 -10 -15 0 -8 5 -15 11 -15 7 0 9
-12 5 -34 -5 -24 -3 -36 6 -39 10 -3 9 -9 -4 -24 -11 -12 -19 -39 -20 -71 -1
-29 -6 -52 -10 -52 -4 0 -8 -9 -8 -20 0 -23 -31 -90 -41 -90 -5 0 -13 8 -18
18 -10 16 -10 16 -11 0 0 -10 -4 -18 -9 -18 -15 0 -32 53 -31 100 1 98 -8 169
-26 199 -21 35 -26 37 -44 16 -9 -10 -9 -15 -1 -15 6 0 11 -7 11 -16 0 -12 -7
-14 -30 -9 -24 5 -30 3 -30 -10 0 -9 -6 -15 -12 -14 -33 4 -39 -1 -27 -23 9
-17 9 -20 -2 -16 -8 3 -23 2 -34 -2 -11 -4 -25 -3 -32 2 -13 10 -33 3 -33 -13
0 -5 9 -9 20 -9 11 0 20 -3 21 -7 8 -58 4 -88 -15 -108 -28 -30 -47 -104 -40
-157 4 -27 -1 -67 -12 -108 -9 -36 -21 -87 -25 -115 -4 -27 -11 -62 -14 -77
-10 -39 1 -73 27 -86 15 -7 17 -11 8 -12 -8 0 -26 -9 -40 -20 -33 -25 -39 -25
-50 4 -6 17 -22 29 -50 37 -22 7 -40 18 -40 26 0 7 -11 18 -24 24 -14 7 -22
17 -19 25 3 8 -5 18 -20 23 -31 12 -43 29 -28 44 15 15 14 27 -3 27 -8 0 -24
9 -37 19 l-24 19 27 7 c33 8 62 39 55 59 -3 8 -20 17 -38 21 -27 6 -29 9 -16
17 10 5 17 21 17 38 0 40 -28 54 -91 45 -27 -4 -49 -4 -49 0 0 4 14 20 31 36
28 26 30 33 24 67 -9 49 -16 54 -64 54 -23 0 -41 2 -41 6 1 18 18 30 45 34 25
2 31 8 33 33 2 17 8 34 13 40 15 15 11 25 -10 25 -19 0 -71 52 -71 71 0 14 9
11 37 -11 35 -27 69 -25 99 6 19 18 24 32 20 48 -4 15 0 28 9 36 8 7 15 19 15
27 0 25 -29 25 -63 -1 -33 -25 -58 -33 -56 -18 0 4 21 21 47 38 50 33 81 76
86 119 2 14 8 31 14 37 19 19 14 38 -10 38 -20 0 -15 7 29 49 33 31 51 55 47
64 -3 9 6 24 23 37 39 30 48 67 20 81 -18 10 -18 13 -6 23 25 18 49 59 49 82
0 11 8 28 18 38 19 16 48 94 39 103 -3 2 -14 0 -24 -6 -20 -10 -43 -51 -65
-116 -10 -28 -20 -41 -36 -43 -32 -5 -29 26 13 133 47 119 72 170 102 206 30
35 72 39 91 8 12 -19 15 -19 36 -6 12 9 34 13 49 10 20 -4 27 -1 27 10 0 13
-9 15 -52 10 -57 -6 -61 5 -6 16 25 6 33 12 31 28 -2 13 6 24 23 31 15 8 27
23 31 42 3 20 24 47 57 76 65 57 99 76 156 85 76 11 90 10 90 -6z m-628 -309
c12 -18 9 -81 -7 -125 -40 -116 -125 -202 -200 -204 -47 -1 -67 21 -73 83 l-5
51 -34 -51 c-58 -87 -135 -116 -169 -65 -31 48 0 156 71 249 l37 49 -53 -5
c-43 -4 -57 -11 -76 -34 l-23 -29 0 26 c0 47 32 64 131 67 49 2 89 1 89 -3 0
-4 -11 -16 -25 -26 -40 -32 -105 -173 -105 -229 0 -35 4 -50 17 -54 27 -11
104 80 154 180 34 69 50 91 71 98 15 6 30 8 32 5 3 -3 -6 -27 -19 -54 -34 -68
-52 -157 -39 -192 12 -35 56 -43 86 -16 23 20 52 82 44 91 -3 3 3 11 13 18 35
25 55 159 25 171 -13 5 -13 7 -2 14 15 10 50 1 60 -15z m2348 -47 c0 -12 -29
-38 -42 -39 -10 0 -10 34 -1 43 11 11 43 8 43 -4z m-260 -309 c0 -5 -9 -10
-21 -10 -11 0 -17 5 -14 10 3 6 13 10 21 10 8 0 14 -4 14 -10z m-2140 -96 c0
-2 -7 -4 -15 -4 -8 0 -15 4 -15 10 0 5 7 7 15 4 8 -4 15 -8 15 -10z m-14 -33
c-6 -9 -66 -33 -66 -26 0 21 17 35 42 35 16 0 27 -4 24 -9z m3862 -228 c-2
-10 -13 -19 -26 -21 -24 -4 -29 7 -10 26 18 18 40 15 36 -5z m1002 -297 c234
-50 409 -167 483 -323 27 -59 32 -79 32 -149 0 -73 -3 -87 -38 -156 -104 -212
-384 -341 -702 -324 -514 28 -806 419 -549 733 78 95 239 182 399 216 89 20
290 21 375 3z m-3837 -43 c-7 -3 -13 -11 -13 -20 0 -17 -31 -14 -38 5 -2 7 5
12 17 12 11 0 23 5 26 11 4 6 10 7 14 3 3 -4 0 -9 -6 -11z m157 -62 c15 -30
13 -33 -22 -26 -57 11 -65 15 -65 30 0 24 74 20 87 -4z m-200 -22 c-7 -11 -14
-18 -17 -15 -8 8 5 36 17 36 7 0 7 -6 0 -21z m305 11 c3 -5 -1 -10 -9 -10 -9
0 -16 5 -16 10 0 6 4 10 9 10 6 0 13 -4 16 -10z m1315 -89 c0 -6 -4 -11 -10
-11 -12 0 -30 33 -30 56 0 13 4 11 20 -9 11 -14 20 -30 20 -36z m-1396 5 c16
-25 52 -28 66 -6 7 11 11 11 24 1 14 -12 14 -16 1 -42 -20 -37 -19 -48 6 -67
23 -19 18 -47 -12 -63 -25 -13 -55 -115 -39 -134 14 -17 1 -44 -46 -97 -46
-52 -108 -147 -101 -155 4 -3 15 4 24 16 12 15 24 20 36 16 23 -10 21 -29 -5
-49 -15 -11 -19 -19 -11 -22 10 -4 10 -10 0 -25 -13 -21 -29 -26 -22 -6 6 14
-42 39 -51 26 -11 -18 -44 -10 -44 11 0 11 -4 20 -8 20 -4 0 -8 8 -9 18 -1 9
-4 33 -6 52 -2 19 -5 41 -6 48 0 6 -8 12 -16 12 -7 0 -18 6 -22 13 -4 8 -16
16 -26 20 -15 5 -17 14 -12 44 6 35 5 37 -9 19 -14 -17 -16 -17 -22 -3 -3 10
-3 28 0 41 3 14 2 27 -3 30 -5 3 -8 -2 -7 -11 0 -9 -5 -18 -11 -20 -7 -3 -13
3 -13 11 0 9 6 25 13 36 10 17 9 22 -1 29 -11 7 -11 16 -1 50 13 42 26 50 48
29 10 -11 15 -9 26 6 8 10 18 15 24 11 18 -10 13 -25 -9 -25 -10 0 -24 -9 -29
-19 -9 -16 -8 -18 9 -14 11 3 25 11 31 19 7 9 33 14 73 14 68 0 148 20 154 39
3 8 -9 10 -40 6 l-43 -6 28 23 c36 31 34 38 -8 38 -36 0 -47 13 -20 24 9 3 22
21 30 41 17 38 34 38 59 1z m-329 -43 c18 -15 31 -31 29 -35 -3 -4 -28 -8 -55
-8 -29 0 -48 4 -44 10 3 5 12 7 19 4 8 -3 17 -1 20 4 3 6 -1 12 -9 16 -17 6
-21 36 -4 36 5 0 25 -12 44 -27z m201 -84 c35 0 37 -1 15 -10 -25 -10 -141 7
-141 20 0 4 5 12 12 19 9 9 19 7 43 -8 18 -11 50 -20 71 -21z m2155 0 c35 -12
79 -46 79 -61 0 -14 -74 -8 -94 7 -27 20 -89 19 -114 -2 -12 -10 -24 -30 -28
-45 l-6 -28 36 15 c45 19 119 19 156 0 117 -61 46 -186 -106 -185 -50 1 -118
31 -139 63 -39 60 -31 149 17 196 49 48 128 63 199 40z m-2377 -14 c-5 -12
-10 -13 -20 -4 -19 15 -18 19 6 19 13 0 18 -5 14 -15z m-594 -150 c0 -26 -14
-33 -25 -15 -9 14 1 40 15 40 5 0 10 -11 10 -25z m2300 15 c0 -5 -6 -10 -14
-10 -8 0 -18 5 -21 10 -3 6 3 10 14 10 12 0 21 -4 21 -10z m-1092 -362 c2 -10
-7 -18 -22 -22 -15 -4 -26 -15 -29 -29 -4 -20 -4 -20 -6 3 -2 49 49 92 57 48z
m62 -53 c0 -8 -4 -15 -9 -15 -13 0 -22 16 -14 24 11 11 23 6 23 -9z m-1240
-162 c-1 -5 -21 -30 -45 -57 -25 -28 -45 -58 -45 -67 0 -25 -22 -72 -37 -82
-7 -4 -13 -21 -13 -37 0 -23 -5 -30 -20 -30 -15 0 -20 -7 -20 -25 0 -18 -5
-25 -19 -25 -21 0 -37 -17 -27 -28 4 -3 16 -1 26 6 28 17 30 16 30 -16 0 -16
-9 -37 -20 -47 -22 -20 -19 -51 9 -72 14 -12 14 -12 -1 -7 -15 5 -18 0 -18
-30 0 -26 -4 -34 -14 -30 -21 8 -72 -45 -80 -83 -4 -18 -8 -36 -9 -40 -1 -5 5
-8 14 -8 8 0 30 -12 48 -28 40 -33 37 -63 -5 -53 -23 6 -26 4 -21 -13 3 -12 1
-21 -4 -21 -5 0 -9 9 -9 21 0 13 -8 23 -21 26 -16 5 -20 12 -17 34 6 36 -4 37
-22 4 -10 -20 -11 -28 -2 -37 7 -7 12 -15 12 -20 0 -14 -49 42 -52 59 -4 25
10 43 27 36 17 -6 21 12 4 22 -7 5 -5 15 6 32 9 13 15 32 13 41 -3 13 -8 9
-19 -13 -18 -37 -59 -45 -57 -11 0 11 -8 40 -19 64 -17 37 -22 40 -33 27 -8
-10 -9 -19 -3 -27 6 -7 13 -32 16 -55 4 -33 2 -43 -9 -43 -8 0 -14 5 -14 11 0
6 -9 9 -20 6 -11 -3 -20 -1 -20 4 0 11 -37 12 -43 2 -3 -5 6 -28 19 -52 l23
-44 11 27 c5 15 13 26 17 24 50 -24 63 -34 63 -50 0 -16 -3 -17 -20 -8 -30 16
-60 -4 -60 -40 0 -22 5 -30 18 -30 10 0 21 -3 24 -6 6 -5 -19 -64 -27 -64 -18
0 -32 15 -28 29 3 13 -3 20 -21 25 -18 4 -26 13 -26 29 -1 25 -22 57 -38 57
-6 0 -13 8 -15 18 -3 9 -3 -11 0 -45 4 -55 3 -63 -12 -63 -11 0 -15 -5 -12
-14 10 -25 -7 -28 -24 -5 l-16 22 -19 -21 c-22 -27 -34 -28 -34 -4 0 14 -2 15
-10 2 -7 -12 -12 -11 -27 7 -10 12 -22 28 -28 37 -7 11 -14 13 -25 6 -13 -8
-10 -14 15 -36 17 -15 29 -33 27 -44 -2 -10 7 -25 18 -33 13 -9 17 -18 11 -21
-5 -4 -8 -13 -4 -21 10 -28 -12 -15 -25 14 -7 16 -22 31 -34 35 -29 7 -35 0
-20 -24 16 -26 15 -40 -3 -40 -8 0 -15 -6 -15 -14 0 -12 6 -12 35 -3 32 9 37
8 51 -12 13 -19 18 -20 32 -9 13 11 15 11 10 -3 -4 -9 -1 -25 6 -35 9 -13 11
-27 5 -41 -10 -27 -31 -31 -27 -6 4 21 -27 29 -47 13 -9 -8 -12 -22 -8 -43 5
-30 4 -31 -9 -13 -8 10 -19 16 -25 13 -6 -4 -18 0 -28 7 -16 11 -16 17 -6 46
9 28 9 37 -4 49 -13 14 -15 12 -15 -17 0 -18 -4 -31 -9 -27 -5 3 -12 1 -16 -5
-3 -5 -12 -10 -18 -10 -9 0 -9 2 0 8 6 4 14 19 18 33 5 22 3 26 -17 25 -15 -1
-23 5 -26 19 -7 45 -10 46 -67 16 -69 -36 -71 -24 -10 69 48 71 128 150 280
272 49 40 100 83 114 95 13 13 29 23 34 23 6 0 22 11 36 24 15 13 40 32 57 43
18 10 69 43 115 73 45 30 105 66 133 80 47 23 52 30 68 80 15 46 29 66 95 128
73 68 93 82 93 65z m1428 -55 l20 -41 -24 -36 c-13 -20 -28 -45 -33 -56 -20
-45 -86 -65 -127 -39 -13 9 -48 18 -76 19 -29 2 -62 6 -73 8 -11 3 -23 6 -26
6 -17 2 -49 41 -49 59 0 23 43 42 98 42 53 0 152 30 152 46 0 8 10 14 23 14
12 1 33 7 46 14 33 18 44 13 69 -36z m3217 17 c196 -58 338 -163 406 -301 30
-61 34 -78 34 -149 0 -73 -4 -88 -37 -157 -49 -98 -132 -178 -248 -236 -135
-67 -217 -85 -400 -85 -185 0 -263 17 -410 90 -116 58 -211 147 -255 238 -25
52 -29 72 -30 150 0 77 4 98 26 145 77 163 266 288 500 329 30 6 115 8 189 6
110 -2 152 -8 225 -30z m-3056 -96 c30 -10 59 -23 65 -28 6 -4 29 -14 51 -21
22 -6 54 -18 72 -26 17 -8 46 -17 65 -20 36 -7 117 -33 133 -44 6 -4 33 -15
60 -24 155 -50 382 -151 423 -186 19 -17 14 -32 -10 -28 -15 2 -24 11 -26 26
-3 17 -10 22 -33 22 -23 0 -29 -4 -29 -23 0 -12 8 -27 19 -34 13 -8 18 -23 18
-52 0 -23 -4 -41 -8 -41 -5 0 -20 24 -33 53 -12 28 -30 58 -39 66 -10 7 -17
19 -17 27 0 7 -9 18 -19 24 -31 16 -38 -9 -10 -31 13 -10 18 -19 12 -19 -17 0
-16 -25 2 -60 13 -25 13 -29 -1 -34 -9 -3 -20 -4 -25 0 -5 3 -9 -1 -9 -9 0 -8
-18 -22 -40 -31 -51 -20 -50 -21 -50 9 0 17 6 25 18 26 13 0 14 2 2 6 -8 3
-18 12 -23 19 -4 7 -14 11 -22 8 -9 -4 -15 0 -15 9 0 8 -7 17 -15 21 -8 3 -15
10 -15 15 0 6 7 8 15 5 30 -12 9 47 -38 109 -22 28 -36 37 -59 37 -26 0 -29
-2 -18 -15 7 -8 22 -15 35 -15 29 0 36 -9 23 -30 -9 -14 -8 -24 6 -45 17 -26
17 -27 -1 -41 -22 -16 -33 -18 -33 -3 0 6 -10 19 -22 30 l-23 19 23 18 c18 14
20 20 10 30 -6 6 -18 12 -25 12 -7 0 -21 10 -32 21 -12 13 -26 19 -35 16 -20
-8 -21 -61 -1 -77 20 -17 20 -51 0 -43 -17 6 -47 -26 -38 -41 3 -4 -1 -12 -8
-17 -7 -4 -10 -11 -6 -16 5 -4 12 -2 16 5 8 13 41 6 41 -8 0 -16 -55 -18 -72
-3 -24 21 -23 32 8 64 l25 27 -26 28 c-22 24 -24 30 -11 32 28 6 18 46 -18 69
-26 16 -41 20 -62 14 -33 -8 -46 -47 -20 -57 9 -3 16 -13 16 -21 0 -10 -6 -13
-16 -9 -9 3 -20 6 -25 6 -4 0 -6 7 -3 15 4 8 1 15 -5 15 -6 0 -9 -16 -6 -40 3
-30 0 -40 -11 -40 -8 0 -14 8 -14 19 0 23 -68 113 -80 106 -5 -3 -14 4 -20 15
-6 11 -16 18 -21 14 -6 -3 -17 2 -24 12 -12 16 -16 17 -24 5 -13 -21 -31 -4
-31 31 0 21 -6 31 -18 35 -14 3 -18 11 -14 31 7 39 54 94 72 86 8 -3 39 -15
69 -25z m-1679 -189 c9 -16 8 -20 -5 -20 -8 0 -15 9 -15 20 0 11 2 20 5 20 2
0 9 -9 15 -20z m3053 -37 c54 -27 58 -92 7 -108 -27 -9 -25 -22 5 -29 31 -8
50 -45 41 -79 -15 -62 -169 -89 -256 -44 -54 27 -69 67 -25 67 14 0 39 -10 55
-22 53 -39 150 -24 150 23 0 22 -22 35 -75 44 -59 10 -65 13 -59 30 4 10 19
15 46 15 49 0 78 15 78 40 0 41 -94 56 -130 20 -25 -25 -83 -28 -78 -4 12 60
158 89 241 47z m-1163 -29 c0 -16 -16 -19 -25 -4 -8 13 4 32 16 25 5 -4 9 -13
9 -21z m-316 -39 c9 -14 13 -25 8 -25 -13 0 -52 30 -52 41 0 18 28 8 44 -16z
m286 -30 c0 -8 -7 -15 -16 -15 -14 0 -14 3 -4 15 7 8 14 15 16 15 2 0 4 -7 4
-15z m50 -11 c0 -8 -4 -12 -10 -9 -5 3 -10 10 -10 16 0 5 5 9 10 9 6 0 10 -7
10 -16z m-1950 -66 c0 -15 -39 -42 -48 -33 -4 3 0 10 7 14 7 5 14 20 14 34 0
22 2 24 13 12 8 -7 14 -20 14 -27z m1907 -10 c-3 -8 -6 -5 -6 6 -1 11 2 17 5
13 3 -3 4 -12 1 -19z m688 -38 c12 0 30 -7 41 -15 18 -13 17 -14 -18 -15 -36
0 -68 20 -68 43 0 8 4 7 12 -1 7 -7 21 -12 33 -12z m-2700 -32 c6 -12 21 -25
34 -28 14 -3 26 -10 28 -17 6 -17 -35 -23 -48 -6 -10 11 -14 11 -20 1 -6 -9
-9 -3 -9 15 0 16 -4 26 -10 22 -12 -7 -12 -3 -4 19 8 22 17 20 29 -6z m2585
-7 c16 -30 12 -36 -10 -16 -21 19 -26 35 -10 35 5 0 14 -9 20 -19z m-1195 -1
c3 -5 1 -10 -4 -10 -6 0 -11 5 -11 10 0 6 2 10 4 10 3 0 8 -4 11 -10z m1282
-25 c8 -22 -6 -33 -17 -15 -13 20 -12 30 0 30 6 0 13 -7 17 -15z m-1357 -19
c0 -2 -7 -6 -15 -10 -8 -3 -15 -1 -15 4 0 6 7 10 15 10 8 0 15 -2 15 -4z m59
-10 c9 -10 8 -15 -2 -19 -15 -6 -50 17 -40 26 11 11 30 8 42 -7z m1204 -1 c32
-2 49 -14 21 -16 -38 -2 -59 3 -74 18 -13 14 -13 15 5 8 11 -5 32 -9 48 -10z
m-109 -15 c28 0 42 -15 25 -26 -6 -3 -14 -2 -18 4 -3 6 -19 12 -35 14 -16 1
-31 9 -34 16 -3 11 0 12 16 3 11 -6 32 -11 46 -11z m351 10 c3 -5 1 -10 -4
-10 -6 0 -11 5 -11 10 0 6 2 10 4 10 3 0 8 -4 11 -10z m-2741 -44 c-8 -20 -34
-29 -34 -11 0 7 8 16 18 18 9 3 18 5 19 6 1 0 0 -5 -3 -13z m1547 -16 c5 0 9
-4 9 -10 0 -5 -7 -10 -15 -10 -8 0 -15 5 -15 11 0 5 -4 8 -9 4 -5 -3 -12 -1
-16 4 -3 5 3 14 12 20 14 7 19 6 21 -5 2 -8 8 -14 13 -14z m959 4 c0 -9 -5
-14 -12 -12 -18 6 -21 28 -4 28 9 0 16 -7 16 -16z m-410 -45 c0 -26 -13 -24
-26 5 -9 20 -9 23 8 18 10 -2 18 -13 18 -23z m35 12 c3 -5 1 -12 -5 -16 -5 -3
-10 1 -10 9 0 18 6 21 15 7z m675 -12 c0 -5 -4 -9 -10 -9 -5 0 -10 7 -10 16 0
8 5 12 10 9 6 -3 10 -10 10 -16z m-3030 1 c0 -5 -4 -10 -10 -10 -5 0 -10 5
-10 10 0 6 5 10 10 10 6 0 10 -4 10 -10z m234 -15 c4 -14 10 -25 15 -25 5 0
12 11 15 25 4 14 11 25 16 25 13 0 13 -4 -4 -45 -15 -36 -30 -45 -39 -22 -4 9
-8 8 -16 -3 -18 -24 -31 6 -18 41 14 36 23 37 31 4z m-139 -16 c11 -17 -1 -21
-15 -4 -8 9 -8 15 -2 15 6 0 14 -5 17 -11z m1715 -10 c0 -5 -4 -9 -10 -9 -5 0
-10 7 -10 16 0 8 5 12 10 9 6 -3 10 -10 10 -16z m1203 6 c-3 -9 -8 -14 -10
-11 -3 3 -2 9 2 15 9 16 15 13 8 -4z m-643 -30 c0 -8 -4 -15 -10 -15 -5 0 -10
7 -10 15 0 8 5 15 10 15 6 0 10 -7 10 -15z m400 -4 c0 -17 -18 -21 -24 -6 -3
9 0 15 9 15 8 0 15 -4 15 -9z m-2911 -16 c3 -3 -5 -15 -17 -27 -19 -19 -22
-20 -22 -5 0 22 -19 22 -37 0 -13 -17 -13 -17 -11 2 1 11 -1 26 -6 34 -8 12
-1 13 39 8 27 -4 51 -9 54 -12z m299 -13 c4 -25 -13 -30 -22 -6 -9 25 -7 36 7
32 6 -3 13 -14 15 -26z m2159 -9 c-3 -10 -5 -4 -5 12 0 17 2 24 5 18 2 -7 2
-21 0 -30z m-2597 17 c0 -5 7 -7 15 -4 10 4 15 0 15 -15 0 -15 -6 -21 -24 -21
-18 0 -23 5 -23 25 0 14 3 25 8 25 5 0 9 -4 9 -10z m250 -5 c0 -8 -4 -15 -9
-15 -13 0 -22 16 -14 24 11 11 23 6 23 -9z m70 1 c0 -20 -19 -31 -32 -18 -6 6
-7 15 -4 21 10 16 36 13 36 -3z m263 -17 c12 12 57 -23 57 -46 0 -7 7 -13 15
-13 11 0 14 7 9 24 -4 16 0 34 10 48 l16 23 -5 -30 c-5 -30 15 -67 43 -76 7
-3 8 -9 2 -18 -7 -12 -11 -12 -24 -2 -13 11 -17 10 -24 -9 -11 -31 -3 -80 14
-80 8 0 14 -7 14 -15 0 -21 -45 1 -65 31 -9 14 -21 21 -30 17 -9 -3 -23 1 -33
9 -9 8 -25 18 -35 21 -10 4 -15 11 -12 17 4 6 17 3 35 -10 37 -26 42 -25 34 5
-5 19 -2 25 10 25 22 0 20 23 -4 45 -18 16 -20 17 -26 1 -5 -14 -10 -12 -25
14 -23 37 -25 63 -3 31 12 -16 19 -20 27 -12z m165 -7 c2 -19 -1 -32 -8 -32
-6 0 -8 5 -5 10 3 6 -1 17 -9 26 -17 17 -12 38 7 31 7 -2 13 -18 15 -35z m562
-3 c0 -5 -4 -9 -10 -9 -5 0 -10 7 -10 16 0 8 5 12 10 9 6 -3 10 -10 10 -16z
m850 1 c0 -5 -4 -10 -10 -10 -5 0 -10 5 -10 10 0 6 5 10 10 10 6 0 10 -4 10
-10z m714 -5 c3 -8 1 -15 -4 -15 -6 0 -10 7 -10 15 0 8 2 15 4 15 2 0 6 -7 10
-15z m-2719 -15 c3 -5 -1 -10 -10 -10 -9 0 -13 5 -10 10 3 6 8 10 10 10 2 0 7
-4 10 -10z m243 -3 c15 6 15 4 4 -10 -13 -15 -42 -13 -42 2 0 13 14 23 18 12
2 -5 11 -7 20 -4z m2397 -59 c5 -18 3 -28 -4 -28 -6 0 -11 9 -11 19 0 11 -3
28 -6 38 -5 12 -4 15 4 8 6 -5 14 -22 17 -37z m125 32 c0 -5 -4 -10 -10 -10
-5 0 -10 5 -10 10 0 6 5 10 10 10 6 0 10 -4 10 -10z m-2720 -10 c0 -5 -5 -10
-11 -10 -5 0 -7 5 -4 10 3 6 8 10 11 10 2 0 4 -4 4 -10z m550 -58 c0 -12 -28
-48 -33 -42 -8 8 11 50 23 50 5 0 10 -4 10 -8z m-530 -26 c0 -3 -4 -8 -10 -11
-5 -3 -10 -1 -10 4 0 6 5 11 10 11 6 0 10 -2 10 -4z m5080 -59 c312 -88 494
-312 436 -537 -42 -165 -194 -297 -421 -366 -83 -26 -103 -28 -260 -28 -157 0
-177 2 -260 28 -344 105 -515 368 -396 610 73 150 247 263 477 311 104 22 315
13 424 -18z m-4650 -23 c0 -8 5 -14 12 -14 9 0 9 -3 0 -12 -14 -14 -18 -11
-28 26 -5 21 -4 27 5 22 6 -4 11 -14 11 -22z m2295 -4 c3 -5 1 -10 -4 -10 -6
0 -11 5 -11 10 0 6 2 10 4 10 3 0 8 -4 11 -10z m-255 -13 c0 -7 -11 -14 -25
-15 -16 -1 -23 3 -19 11 6 17 44 20 44 4z m134 -39 c-4 -6 -10 -5 -15 3 -14
22 -10 33 6 19 8 -7 12 -17 9 -22z m-2874 12 c0 -5 -4 -10 -10 -10 -5 0 -10 5
-10 10 0 6 5 10 10 10 6 0 10 -4 10 -10z m76 -45 c17 -9 32 -11 38 -5 9 9 76
-55 76 -74 0 -6 -6 -4 -13 4 -7 8 -22 14 -34 12 -17 -3 -23 2 -23 17 0 16 -8
20 -37 23 -27 2 -39 8 -41 21 -4 21 -2 21 34 2z m2888 -21 c5 -13 9 -14 21 -4
24 20 19 -23 -5 -45 -19 -17 -20 -17 -29 9 -6 14 -15 26 -21 26 -5 0 -10 7
-10 15 0 20 36 19 44 -1z m-126 -11 c-2 -11 -14 -19 -31 -21 -31 -4 -36 -22
-7 -29 11 -3 17 -9 14 -14 -9 -15 -23 -10 -35 13 -10 19 -8 25 15 45 32 27 49
30 44 6z m66 -2 c4 -5 2 -20 -3 -33 -7 -15 -10 -17 -10 -7 -1 9 -8 19 -16 23
-8 3 -15 10 -15 16 0 12 37 13 44 1z m-1624 -35 c0 -3 -4 -8 -10 -11 -5 -3
-10 -1 -10 4 0 6 5 11 10 11 6 0 10 -2 10 -4z m1580 -16 c0 -5 -4 -10 -10 -10
-5 0 -10 5 -10 10 0 6 5 10 10 10 6 0 10 -4 10 -10z m-1639 -43 c-13 -13 -26
-3 -16 12 3 6 11 8 17 5 6 -4 6 -10 -1 -17z m-953 -39 c29 -29 52 -58 52 -66
0 -23 -24 -7 -39 26 -8 17 -24 35 -35 38 -24 8 -46 28 -46 43 0 21 17 11 68
-41z m2662 8 c0 -3 -4 -8 -10 -11 -5 -3 -10 -1 -10 4 0 6 5 11 10 11 6 0 10
-2 10 -4z m240 -16 c0 -5 -4 -10 -10 -10 -5 0 -10 5 -10 10 0 6 5 10 10 10 6
0 10 -4 10 -10z m60 -480 c0 -5 -5 -10 -11 -10 -5 0 -7 5 -4 10 3 6 8 10 11
10 2 0 4 -4 4 -10z"/>
<path d="M5190 5819 c-42 -17 -70 -50 -70 -84 0 -65 58 -105 153 -105 60 0
111 26 136 71 12 22 12 29 -3 60 -10 22 -30 42 -52 52 -38 19 -124 22 -164 6z"/>
<path d="M3774 4926 c-13 -22 -14 -29 -2 -53 25 -52 78 -38 78 21 0 57 -46 76
-76 32z"/>
<path d="M870 4943 c-28 -11 -190 -135 -185 -143 2 -4 44 -36 92 -71 l88 -64
140 -3 c81 -1 146 2 155 7 12 9 15 34 13 137 -2 69 -5 130 -9 135 -6 10 -268
11 -294 2z m70 -79 l40 -27 38 27 c41 28 67 33 78 14 7 -11 -8 -27 -55 -58
l-23 -16 41 -27 c22 -15 41 -32 41 -37 0 -18 -32 -24 -54 -10 -74 47 -71 46
-109 17 -69 -53 -107 -23 -40 31 l37 29 -37 24 c-40 26 -50 59 -17 59 11 0 38
-12 60 -26z"/>
<path d="M2231 4837 c-30 -62 -28 -67 25 -67 42 0 45 2 38 22 -11 35 -34 88
-38 88 -2 0 -14 -19 -25 -43z"/>
<path d="M4141 4746 c-17 -20 -10 -77 12 -90 25 -16 51 4 55 43 4 36 -12 61
-38 61 -10 0 -23 -6 -29 -14z"/>
<path d="M1462 4408 c5 -14 64 -29 85 -21 10 4 11 9 2 19 -15 18 -92 19 -87 2z"/>
<path d="M1346 4384 c-41 -23 -19 -38 27 -19 19 8 38 19 42 25 9 15 -36 11
-69 -6z"/>
<path d="M1315 4320 c-3 -5 -2 -10 4 -10 5 0 13 5 16 10 3 6 2 10 -4 10 -5 0
-13 -4 -16 -10z"/>
<path d="M1395 4320 c-3 -5 -1 -10 4 -10 6 0 11 5 11 10 0 6 -2 10 -4 10 -3 0
-8 -4 -11 -10z"/>
<path d="M1287 4263 c-22 -15 -35 -29 -29 -31 14 -4 102 36 102 48 0 18 -35
10 -73 -17z"/>
<path d="M1235 4270 c-3 -5 -1 -10 4 -10 6 0 11 5 11 10 0 6 -2 10 -4 10 -3 0
-8 -4 -11 -10z"/>
<path d="M2272 4218 c6 -18 28 -21 28 -4 0 9 -7 16 -16 16 -9 0 -14 -5 -12
-12z"/>
<path d="M1215 4210 c-3 -5 -2 -10 4 -10 5 0 13 5 16 10 3 6 2 10 -4 10 -5 0
-13 -4 -16 -10z"/>
<path d="M1028 4139 c-8 -13 -27 -49 -42 -79 l-27 -55 26 30 c32 37 67 103 63
117 -2 6 -11 0 -20 -13z"/>
<path d="M4416 4138 c-22 -33 -58 -119 -53 -124 10 -10 87 110 87 136 0 18
-19 11 -34 -12z"/>
<path d="M1095 4095 c-16 -14 -35 -25 -41 -25 -10 0 -44 -41 -44 -52 0 -2 10
-3 23 -3 31 2 69 24 64 38 -2 6 10 24 27 39 38 35 13 37 -29 3z"/>
<path d="M5255 4067 c-40 -61 -88 -217 -67 -217 14 0 25 18 46 70 10 25 28 68
40 95 22 48 24 75 5 75 -5 0 -15 -10 -24 -23z"/>
<path d="M5600 4045 c-10 -12 -9 -16 5 -21 19 -8 40 9 31 25 -10 15 -21 14
-36 -4z"/>
<path d="M1410 3934 c-11 -25 -20 -54 -20 -65 0 -35 17 -20 30 26 7 25 17 48
21 51 13 7 11 34 -1 34 -6 0 -20 -21 -30 -46z"/>
<path d="M2144 3955 c-20 -30 -32 -111 -16 -101 7 4 12 13 12 19 0 7 9 30 20
52 11 22 20 43 20 47 0 17 -20 7 -36 -17z"/>
<path d="M2943 3958 c-29 -32 -43 -62 -43 -93 0 -23 2 -25 21 -15 22 12 79 96
79 117 0 21 -35 15 -57 -9z"/>
<path d="M3530 3960 c-25 -25 -52 -90 -45 -107 3 -10 10 -11 24 -4 22 12 81
98 81 118 0 20 -37 16 -60 -7z"/>
<path d="M5118 3962 c-18 -3 -51 -51 -63 -89 -12 -42 21 -25 55 27 34 53 36
68 8 62z"/>
<path d="M5336 3944 c-27 -28 -48 -86 -39 -110 7 -19 23 -8 23 16 0 10 6 23
13 27 7 4 22 27 34 51 24 49 10 57 -31 16z"/>
<path d="M5557 3952 c-20 -22 -50 -92 -43 -99 12 -12 33 8 55 52 25 50 18 80
-12 47z"/>
<path d="M5890 3941 c-29 -29 -48 -76 -35 -89 7 -7 52 44 80 91 15 25 15 27 0
27 -9 0 -29 -13 -45 -29z"/>
<path d="M6005 3941 c-8 -16 -26 -59 -40 -96 -14 -37 -39 -92 -56 -121 -29
-51 -29 -54 -10 -54 29 0 62 54 110 179 23 58 41 106 41 107 0 1 -7 4 -15 8
-10 3 -20 -5 -30 -23z"/>
<path d="M1045 3909 c-9 -28 -15 -53 -12 -56 9 -8 36 40 43 75 10 51 -12 38
-31 -19z"/>
<path d="M2244 3903 c-14 -32 -31 -71 -40 -87 -8 -16 -12 -31 -10 -34 13 -12
35 10 46 45 7 21 23 57 36 80 28 49 29 53 8 53 -9 0 -25 -23 -40 -57z"/>
<path d="M4133 3938 c-35 -38 -56 -89 -44 -101 16 -16 41 2 68 49 38 66 22
101 -24 52z"/>
<path d="M5666 3947 c-15 -11 -66 -133 -66 -157 0 -25 19 -6 34 35 10 25 23
48 30 52 16 10 37 71 27 77 -4 3 -16 0 -25 -7z"/>
<path d="M5765 3950 c-4 -6 -10 -23 -15 -38 -4 -15 -11 -35 -15 -44 -5 -12 -3
-18 7 -18 18 0 48 52 48 84 0 26 -13 35 -25 16z"/>
<path d="M1291 3919 c-22 -36 -27 -69 -12 -69 12 0 46 88 38 96 -3 4 -15 -9
-26 -27z"/>
<path d="M1678 3925 c-22 -43 -31 -75 -20 -75 5 0 17 18 27 39 21 48 15 80 -7
36z"/>
<path d="M2356 3910 c-19 -47 -20 -64 -5 -55 10 7 19 26 33 73 13 39 -11 24
-28 -18z"/>
<path d="M1160 3908 c-22 -36 -26 -58 -10 -58 8 0 50 70 50 85 0 16 -23 1 -40
-27z"/>
<path d="M2465 3910 c-17 -33 -20 -60 -6 -60 5 0 16 20 24 45 18 51 6 61 -18
15z"/>
<path d="M5430 3931 c0 -5 -3 -16 -6 -25 -4 -10 -1 -16 9 -16 17 0 27 18 19
38 -5 14 -22 16 -22 3z"/>
<path d="M5412 3848 c7 -19 38 -22 38 -4 0 10 -9 16 -21 16 -12 0 -19 -5 -17
-12z"/>
<path d="M3940 3822 c-41 -20 -51 -47 -21 -57 12 -3 21 -13 21 -21 0 -18 79
-19 102 -1 29 23 29 45 0 65 -42 30 -64 33 -102 14z"/>
<path d="M1845 3800 c-10 -11 -15 -23 -12 -27 8 -7 47 25 47 39 0 14 -16 9
-35 -12z"/>
<path d="M2646 3804 c-20 -19 -20 -24 -1 -24 8 0 19 9 25 20 13 24 -2 27 -24
4z"/>
<path d="M5057 3804 c-30 -16 -28 -34 4 -34 29 0 59 18 59 35 0 19 -27 18 -63
-1z"/>
<path d="M5182 3804 c-12 -8 -22 -19 -22 -25 0 -16 56 -10 73 9 29 32 -10 45
-51 16z"/>
<path d="M5733 3803 c-27 -18 -29 -29 -7 -37 21 -8 74 24 67 41 -7 17 -33 16
-60 -4z"/>
<path d="M5852 3804 c-35 -14 -36 -28 -3 -37 23 -6 44 15 39 37 -3 13 -7 13
-36 0z"/>
<path d="M1020 3795 c-10 -12 -9 -16 3 -21 20 -7 37 3 37 22 0 18 -24 18 -40
-1z"/>
<path d="M1141 3801 c-7 -5 -11 -13 -7 -19 8 -14 46 -3 46 14 0 16 -18 18 -39
5z"/>
<path d="M1265 3799 c-4 -6 -4 -13 -1 -16 8 -8 36 5 36 17 0 13 -27 13 -35 -1z"/>
<path d="M1393 3803 c-20 -8 -15 -23 7 -23 11 0 20 7 20 15 0 15 -6 17 -27 8z"/>
<path d="M1645 3800 c-3 -5 -3 -15 0 -20 7 -12 45 5 45 20 0 13 -37 13 -45 0z"/>
<path d="M2117 3804 c-13 -13 -7 -24 14 -24 11 0 19 5 17 12 -5 14 -22 21 -31
12z"/>
<path d="M2331 3796 c-9 -10 -8 -15 1 -18 19 -7 38 2 38 18 0 18 -24 18 -39 0z"/>
<path d="M2445 3800 c-11 -17 5 -32 21 -19 8 6 14 15 14 20 0 12 -27 11 -35
-1z"/>
<path d="M5513 3803 c-22 -8 -14 -23 12 -23 16 0 25 6 25 15 0 15 -14 18 -37
8z"/>
<path d="M5285 3774 c11 -8 29 -13 40 -10 11 3 26 6 33 6 7 0 10 5 7 10 -3 6
-27 10 -53 10 -44 -1 -46 -2 -27 -16z"/>
<path d="M3362 3738 c-19 -25 -63 -120 -60 -130 5 -13 73 87 83 120 7 24 -6
30 -23 10z"/>
<path d="M4030 3694 c-14 -7 -46 -14 -71 -14 -76 0 -73 -44 4 -57 45 -7 92 18
105 57 12 34 4 37 -38 14z"/>
<path d="M3862 3688 c-7 -7 -12 -21 -12 -32 0 -18 1 -19 20 -1 20 18 27 45 12
45 -4 0 -13 -5 -20 -12z"/>
<path d="M5807 3674 c-11 -11 3 -24 25 -24 17 0 18 2 8 15 -13 16 -23 19 -33
9z"/>
<path d="M3835 3619 c-4 -6 -5 -12 -2 -15 2 -3 7 2 10 11 7 17 1 20 -8 4z"/>
<path d="M3826 3570 c-25 -30 -46 -86 -46 -123 0 -37 36 -11 84 62 38 57 45
75 35 82 -25 16 -47 9 -73 -21z"/>
<path d="M3087 3568 c-24 -13 -67 -83 -67 -109 0 -17 7 -14 45 25 55 57 70 82
52 89 -7 3 -21 1 -30 -5z"/>
<path d="M2196 3542 c-8 -15 -18 -46 -22 -67 -6 -37 -6 -39 9 -26 10 7 17 19
17 25 0 7 9 29 20 51 24 47 24 45 5 45 -8 0 -21 -13 -29 -28z"/>
<path d="M3961 3563 c-18 -7 -63 -105 -52 -116 15 -15 40 5 76 58 19 29 35 56
35 59 0 7 -40 6 -59 -1z"/>
<path d="M4318 3553 c-25 -29 -48 -80 -48 -108 0 -40 28 -44 61 -7 23 25 27
37 22 65 -3 20 -1 37 6 41 17 11 13 26 -7 26 -11 0 -26 -8 -34 -17z"/>
<path d="M1608 3543 c-37 -43 -52 -113 -26 -129 20 -12 58 43 58 85 0 20 5 42
12 49 9 9 7 12 -8 12 -12 0 -28 -8 -36 -17z"/>
<path d="M2323 3538 c-22 -26 -76 -158 -67 -167 8 -9 44 38 44 58 0 9 14 36
30 61 43 64 38 97 -7 48z"/>
<path d="M1920 3524 c-6 -16 -14 -42 -17 -59 -6 -27 -5 -29 10 -17 23 20 42
81 28 95 -7 7 -13 2 -21 -19z"/>
<path d="M2415 3518 c-17 -42 -21 -88 -6 -72 20 19 40 80 31 94 -7 11 -13 6
-25 -22z"/>
<path d="M1701 3517 c-14 -36 -14 -37 4 -37 21 0 29 24 17 47 -10 16 -12 15
-21 -10z"/>
<path d="M2855 3500 c-16 -31 -20 -70 -7 -70 4 0 12 15 18 33 6 17 14 40 19
50 13 30 -13 19 -30 -13z"/>
<path d="M1215 3489 c-4 -6 -4 -13 -1 -16 8 -8 36 5 36 17 0 13 -27 13 -35 -1z"/>
<path d="M2510 3460 c0 -35 10 -38 28 -10 14 23 8 40 -14 40 -9 0 -14 -11 -14
-30z"/>
<path d="M1889 3391 l-23 -18 23 -8 c26 -8 58 15 47 34 -10 15 -20 14 -47 -8z"/>
<path d="M2397 3399 c-23 -13 -22 -29 2 -29 23 0 33 11 23 27 -5 8 -13 8 -25
2z"/>
<path d="M3018 3399 c-22 -12 -23 -25 -3 -33 23 -8 45 4 45 25 0 21 -16 24
-42 8z"/>
<path d="M2167 3393 c-13 -12 -7 -23 13 -23 11 0 20 7 20 15 0 15 -21 21 -33
8z"/>
<path d="M2848 3373 c7 -3 16 -2 19 1 4 3 -2 6 -13 5 -11 0 -14 -3 -6 -6z"/>
<path d="M3140 3268 c0 -18 27 -44 37 -34 4 4 -3 16 -15 29 -18 17 -22 18 -22
5z"/>
<path d="M1262 3252 c-13 -2 -21 -9 -19 -15 5 -16 28 -19 47 -7 20 12 2 27
-28 22z"/>
<path d="M2492 3114 c-12 -16 -26 -34 -32 -41 -5 -7 -10 -30 -10 -52 0 -43
-15 -55 -57 -45 -21 6 -24 3 -21 -12 2 -10 12 -20 22 -22 10 -2 28 -14 40 -27
14 -16 36 -25 69 -28 41 -4 50 -1 67 20 19 24 19 24 30 4 6 -12 19 -21 30 -21
12 0 30 -16 46 -40 17 -25 34 -40 47 -40 19 0 19 1 2 20 -11 13 -15 25 -10 37
12 26 6 53 -22 100 -25 43 -24 63 2 63 12 0 11 6 -4 32 -23 42 -66 67 -128 75
-46 5 -51 3 -71 -23z m133 -114 c42 -26 56 -55 23 -47 -34 8 -97 32 -105 41
-9 8 15 26 36 26 7 0 28 -9 46 -20z"/>
<path d="M2400 3000 c0 -5 5 -10 10 -10 6 0 10 5 10 10 0 6 -4 10 -10 10 -5 0
-10 -4 -10 -10z"/>
<path d="M2522 2844 c10 -10 88 -13 93 -3 4 5 -16 9 -46 9 -29 0 -50 -3 -47
-6z"/>
<path d="M3136 2801 c-4 -7 -5 -15 -2 -18 9 -9 19 4 14 18 -4 11 -6 11 -12 0z"/>
<path d="M2525 2771 c6 -5 24 -13 40 -17 20 -4 27 -3 20 3 -5 6 -23 14 -40 17
-20 5 -27 4 -20 -3z"/>
<path d="M2790 2641 c0 -23 4 -29 16 -24 17 6 15 44 -3 51 -9 2 -13 -7 -13
-27z"/>
<path d="M2940 2656 c0 -8 5 -18 10 -21 6 -3 10 1 10 9 0 8 -4 18 -10 21 -5 3
-10 -1 -10 -9z"/>
<path d="M2510 2496 c0 -27 40 -94 67 -112 l24 -15 -25 48 c-13 27 -33 59 -45
73 -18 22 -20 23 -21 6z"/>
<path d="M3942 2648 c-34 -17 -40 -57 -12 -80 50 -41 150 -9 137 44 -11 41
-75 60 -125 36z"/>
<path d="M755 1680 c-3 -5 1 -10 9 -10 9 0 16 5 16 10 0 6 -4 10 -9 10 -6 0
-13 -4 -16 -10z"/>
<path d="M860 1580 c0 -5 7 -10 15 -10 8 0 15 5 15 10 0 6 -7 10 -15 10 -8 0
-15 -4 -15 -10z"/>
<path d="M780 1551 c0 -6 5 -13 10 -16 6 -3 10 1 10 9 0 9 -4 16 -10 16 -5 0
-10 -4 -10 -9z"/>
<path d="M730 1531 c0 -5 7 -12 16 -15 14 -5 15 -4 4 9 -14 17 -20 19 -20 6z"/>
<path d="M730 1470 c0 -5 5 -10 10 -10 6 0 10 5 10 10 0 6 -4 10 -10 10 -5 0
-10 -4 -10 -10z"/>
<path d="M526 1433 c18 -73 38 -103 66 -95 19 5 25 22 8 22 -5 0 -10 6 -10 13
0 7 -11 21 -25 31 -14 10 -25 27 -25 37 0 11 -5 19 -10 19 -6 0 -8 -11 -4 -27z"/>
<path d="M395 1430 c3 -5 10 -10 16 -10 5 0 9 5 9 10 0 6 -7 10 -16 10 -8 0
-12 -4 -9 -10z"/>
<path d="M425 1359 c-11 -17 1 -21 15 -4 8 9 8 15 2 15 -6 0 -14 -5 -17 -11z"/>
<path d="M460 1310 c0 -5 5 -10 10 -10 6 0 10 5 10 10 0 6 -4 10 -10 10 -5 0
-10 -4 -10 -10z"/>
<path d="M220 1280 c0 -5 5 -10 10 -10 6 0 10 5 10 10 0 6 -4 10 -10 10 -5 0
-10 -4 -10 -10z"/>
<path d="M250 1280 c0 -5 5 -10 10 -10 6 0 10 5 10 10 0 6 -4 10 -10 10 -5 0
-10 -4 -10 -10z"/>
<path d="M310 1071 c0 -5 -3 -16 -6 -25 -4 -11 -1 -16 10 -16 18 0 22 35 6 45
-5 3 -10 2 -10 -4z"/>
<path d="M2770 1861 c0 -5 5 -13 10 -16 6 -3 10 -2 10 4 0 5 -4 13 -10 16 -5
3 -10 2 -10 -4z"/>
<path d="M2720 1810 c0 -5 4 -10 9 -10 6 0 13 5 16 10 3 6 -1 10 -9 10 -9 0
-16 -4 -16 -10z"/>
<path d="M3008 1757 c-32 -26 -36 -47 -10 -47 16 0 26 13 50 63 6 14 -13 6
-40 -16z"/>
<path d="M2765 1761 c-8 -15 3 -31 21 -31 9 0 14 7 12 17 -4 20 -24 28 -33 14z"/>
<path d="M2828 1762 c-17 -7 -16 -8 2 -20 16 -10 21 -9 30 8 12 22 2 25 -32
12z"/>
<path d="M3175 1728 c11 -6 25 -19 32 -27 8 -12 15 -13 23 -5 14 14 -4 29 -45
38 -26 6 -28 5 -10 -6z"/>
<path d="M3280 1667 c0 -20 23 -45 45 -49 26 -4 33 31 9 49 -23 17 -54 17 -54
0z"/>
</g>
</svg>
